# xmcd
# Copyright (C) 1995-1998 Ti Kan
#
# Track frame offsets:
#       150
#       14215
#       29259
#       46035
#       63464
#       79805
#       98310
#       116864
#       132662
#       147535
#       162283
#       178272
#
# Disc length: 2581 seconds
#
# Revision: 1
# Processed by: cddbd v1.5.2PL0 Copyright (c) Steve Scherf et al.
# Submitted via: CD-Import v1.0
#
DISCID=aa0a130c
DTITLE=Baseballs, The - Strike
DYEAR=2009
DGENRE=
TTITLE0=Umbrella
TTITLE1=Love In This Club
TTITLE2=Hey There Delilah
TTITLE3=Bleeding Love
TTITLE4=Hot N Cold
TTITLE5=I Don't Feel Like Dancin'
TTITLE6=Don't Cha
TTITLE7=Let's Get Loud
TTITLE8=Angels
TTITLE9=Crazy In Love
TTITLE10=This Love
TTITLE11=The Look
EXTD=
EXTT0=
EXTT1=
EXTT2=
EXTT3=
EXTT4=
EXTT5=
EXTT6=
EXTT7=
EXTT8=
EXTT9=
EXTT10=
EXTT11=
PLAYORDER=
